<mxfile host="app.diagrams.net" modified="2021-09-10T05:49:24.892Z" agent="5.0 (Windows NT 10.0; Win64; x64) AppleWebKit/537.36 (KHTML, like Gecko) Chrome/93.0.4577.63 Safari/537.36 Edg/93.0.961.38" etag="LxCNgTqr-E8SFtHneYGG" version="15.1.4" type="github">
  <diagram id="l197ykoGt-5aLfTSKU_l" name="Page-1">
    <mxGraphModel dx="1698" dy="1154" grid="1" gridSize="10" guides="1" tooltips="1" connect="1" arrows="1" fold="1" page="1" pageScale="1" pageWidth="850" pageHeight="1100" math="0" shadow="0">
      <root>
        <mxCell id="0" />
        <mxCell id="1" parent="0" />
        <mxCell id="XOvYFyjmSCbvPJwa7-iT-15" value="Table" style="shape=table;startSize=30;container=1;collapsible=1;childLayout=tableLayout;fixedRows=1;rowLines=0;fontStyle=1;align=center;resizeLast=1;" vertex="1" parent="1">
          <mxGeometry x="70" y="310" width="180" height="120" as="geometry" />
        </mxCell>
        <mxCell id="XOvYFyjmSCbvPJwa7-iT-16" value="" style="shape=partialRectangle;collapsible=0;dropTarget=0;pointerEvents=0;fillColor=none;top=0;left=0;bottom=1;right=0;points=[[0,0.5],[1,0.5]];portConstraint=eastwest;" vertex="1" parent="XOvYFyjmSCbvPJwa7-iT-15">
          <mxGeometry y="30" width="180" height="30" as="geometry" />
        </mxCell>
        <mxCell id="XOvYFyjmSCbvPJwa7-iT-17" value="xMod2" style="shape=partialRectangle;connectable=0;fillColor=none;top=0;left=0;bottom=0;right=0;fontStyle=1;overflow=hidden;" vertex="1" parent="XOvYFyjmSCbvPJwa7-iT-16">
          <mxGeometry width="80" height="30" as="geometry" />
        </mxCell>
        <mxCell id="XOvYFyjmSCbvPJwa7-iT-18" value="l" style="shape=partialRectangle;connectable=0;fillColor=none;top=0;left=0;bottom=0;right=0;align=left;spacingLeft=6;fontStyle=5;overflow=hidden;" vertex="1" parent="XOvYFyjmSCbvPJwa7-iT-16">
          <mxGeometry x="80" width="100" height="30" as="geometry" />
        </mxCell>
        <mxCell id="XOvYFyjmSCbvPJwa7-iT-19" value="" style="shape=partialRectangle;collapsible=0;dropTarget=0;pointerEvents=0;fillColor=none;top=0;left=0;bottom=0;right=0;points=[[0,0.5],[1,0.5]];portConstraint=eastwest;" vertex="1" parent="XOvYFyjmSCbvPJwa7-iT-15">
          <mxGeometry y="60" width="180" height="30" as="geometry" />
        </mxCell>
        <mxCell id="XOvYFyjmSCbvPJwa7-iT-20" value="1" style="shape=partialRectangle;connectable=0;fillColor=none;top=0;left=0;bottom=0;right=0;editable=1;overflow=hidden;" vertex="1" parent="XOvYFyjmSCbvPJwa7-iT-19">
          <mxGeometry width="80" height="30" as="geometry" />
        </mxCell>
        <mxCell id="XOvYFyjmSCbvPJwa7-iT-21" value="[1,3,5,7]" style="shape=partialRectangle;connectable=0;fillColor=none;top=0;left=0;bottom=0;right=0;align=left;spacingLeft=6;overflow=hidden;" vertex="1" parent="XOvYFyjmSCbvPJwa7-iT-19">
          <mxGeometry x="80" width="100" height="30" as="geometry" />
        </mxCell>
        <mxCell id="XOvYFyjmSCbvPJwa7-iT-22" value="" style="shape=partialRectangle;collapsible=0;dropTarget=0;pointerEvents=0;fillColor=none;top=0;left=0;bottom=0;right=0;points=[[0,0.5],[1,0.5]];portConstraint=eastwest;" vertex="1" parent="XOvYFyjmSCbvPJwa7-iT-15">
          <mxGeometry y="90" width="180" height="30" as="geometry" />
        </mxCell>
        <mxCell id="XOvYFyjmSCbvPJwa7-iT-23" value="0" style="shape=partialRectangle;connectable=0;fillColor=none;top=0;left=0;bottom=0;right=0;editable=1;overflow=hidden;" vertex="1" parent="XOvYFyjmSCbvPJwa7-iT-22">
          <mxGeometry width="80" height="30" as="geometry" />
        </mxCell>
        <mxCell id="XOvYFyjmSCbvPJwa7-iT-24" value="[2,4,6,8]" style="shape=partialRectangle;connectable=0;fillColor=none;top=0;left=0;bottom=0;right=0;align=left;spacingLeft=6;overflow=hidden;" vertex="1" parent="XOvYFyjmSCbvPJwa7-iT-22">
          <mxGeometry x="80" width="100" height="30" as="geometry" />
        </mxCell>
        <mxCell id="XOvYFyjmSCbvPJwa7-iT-29" value="Table" style="shape=table;startSize=30;container=1;collapsible=1;childLayout=tableLayout;fixedRows=1;rowLines=0;fontStyle=1;align=center;resizeLast=1;" vertex="1" parent="1">
          <mxGeometry x="310" y="160" width="230" height="180" as="geometry" />
        </mxCell>
        <mxCell id="XOvYFyjmSCbvPJwa7-iT-30" value="" style="shape=partialRectangle;collapsible=0;dropTarget=0;pointerEvents=0;fillColor=none;top=0;left=0;bottom=1;right=0;points=[[0,0.5],[1,0.5]];portConstraint=eastwest;" vertex="1" parent="XOvYFyjmSCbvPJwa7-iT-29">
          <mxGeometry y="30" width="230" height="30" as="geometry" />
        </mxCell>
        <mxCell id="XOvYFyjmSCbvPJwa7-iT-31" value="xMod2" style="shape=partialRectangle;connectable=0;fillColor=none;top=0;left=0;bottom=0;right=0;fontStyle=1;overflow=hidden;" vertex="1" parent="XOvYFyjmSCbvPJwa7-iT-30">
          <mxGeometry width="80" height="30" as="geometry" />
        </mxCell>
        <mxCell id="XOvYFyjmSCbvPJwa7-iT-32" value="l" style="shape=partialRectangle;connectable=0;fillColor=none;top=0;left=0;bottom=0;right=0;align=left;spacingLeft=6;fontStyle=5;overflow=hidden;" vertex="1" parent="XOvYFyjmSCbvPJwa7-iT-30">
          <mxGeometry x="80" width="150" height="30" as="geometry" />
        </mxCell>
        <mxCell id="XOvYFyjmSCbvPJwa7-iT-33" value="" style="shape=partialRectangle;collapsible=0;dropTarget=0;pointerEvents=0;fillColor=none;top=0;left=0;bottom=0;right=0;points=[[0,0.5],[1,0.5]];portConstraint=eastwest;" vertex="1" parent="XOvYFyjmSCbvPJwa7-iT-29">
          <mxGeometry y="60" width="230" height="30" as="geometry" />
        </mxCell>
        <mxCell id="XOvYFyjmSCbvPJwa7-iT-34" value="1" style="shape=partialRectangle;connectable=0;fillColor=none;top=0;left=0;bottom=0;right=0;editable=1;overflow=hidden;" vertex="1" parent="XOvYFyjmSCbvPJwa7-iT-33">
          <mxGeometry width="80" height="30" as="geometry" />
        </mxCell>
        <mxCell id="XOvYFyjmSCbvPJwa7-iT-35" value="1" style="shape=partialRectangle;connectable=0;fillColor=none;top=0;left=0;bottom=0;right=0;align=left;spacingLeft=6;overflow=hidden;" vertex="1" parent="XOvYFyjmSCbvPJwa7-iT-33">
          <mxGeometry x="80" width="150" height="30" as="geometry" />
        </mxCell>
        <mxCell id="XOvYFyjmSCbvPJwa7-iT-36" value="" style="shape=partialRectangle;collapsible=0;dropTarget=0;pointerEvents=0;fillColor=none;top=0;left=0;bottom=0;right=0;points=[[0,0.5],[1,0.5]];portConstraint=eastwest;" vertex="1" parent="XOvYFyjmSCbvPJwa7-iT-29">
          <mxGeometry y="90" width="230" height="30" as="geometry" />
        </mxCell>
        <mxCell id="XOvYFyjmSCbvPJwa7-iT-37" value="1" style="shape=partialRectangle;connectable=0;fillColor=none;top=0;left=0;bottom=0;right=0;editable=1;overflow=hidden;" vertex="1" parent="XOvYFyjmSCbvPJwa7-iT-36">
          <mxGeometry width="80" height="30" as="geometry" />
        </mxCell>
        <mxCell id="XOvYFyjmSCbvPJwa7-iT-38" value="3" style="shape=partialRectangle;connectable=0;fillColor=none;top=0;left=0;bottom=0;right=0;align=left;spacingLeft=6;overflow=hidden;" vertex="1" parent="XOvYFyjmSCbvPJwa7-iT-36">
          <mxGeometry x="80" width="150" height="30" as="geometry" />
        </mxCell>
        <mxCell id="XOvYFyjmSCbvPJwa7-iT-48" style="shape=partialRectangle;collapsible=0;dropTarget=0;pointerEvents=0;fillColor=none;top=0;left=0;bottom=0;right=0;points=[[0,0.5],[1,0.5]];portConstraint=eastwest;" vertex="1" parent="XOvYFyjmSCbvPJwa7-iT-29">
          <mxGeometry y="120" width="230" height="30" as="geometry" />
        </mxCell>
        <mxCell id="XOvYFyjmSCbvPJwa7-iT-49" value="1" style="shape=partialRectangle;connectable=0;fillColor=none;top=0;left=0;bottom=0;right=0;editable=1;overflow=hidden;" vertex="1" parent="XOvYFyjmSCbvPJwa7-iT-48">
          <mxGeometry width="80" height="30" as="geometry" />
        </mxCell>
        <mxCell id="XOvYFyjmSCbvPJwa7-iT-50" value="5" style="shape=partialRectangle;connectable=0;fillColor=none;top=0;left=0;bottom=0;right=0;align=left;spacingLeft=6;overflow=hidden;" vertex="1" parent="XOvYFyjmSCbvPJwa7-iT-48">
          <mxGeometry x="80" width="150" height="30" as="geometry" />
        </mxCell>
        <mxCell id="XOvYFyjmSCbvPJwa7-iT-51" style="shape=partialRectangle;collapsible=0;dropTarget=0;pointerEvents=0;fillColor=none;top=0;left=0;bottom=0;right=0;points=[[0,0.5],[1,0.5]];portConstraint=eastwest;" vertex="1" parent="XOvYFyjmSCbvPJwa7-iT-29">
          <mxGeometry y="150" width="230" height="30" as="geometry" />
        </mxCell>
        <mxCell id="XOvYFyjmSCbvPJwa7-iT-52" value="1" style="shape=partialRectangle;connectable=0;fillColor=none;top=0;left=0;bottom=0;right=0;editable=1;overflow=hidden;" vertex="1" parent="XOvYFyjmSCbvPJwa7-iT-51">
          <mxGeometry width="80" height="30" as="geometry" />
        </mxCell>
        <mxCell id="XOvYFyjmSCbvPJwa7-iT-53" value="7" style="shape=partialRectangle;connectable=0;fillColor=none;top=0;left=0;bottom=0;right=0;align=left;spacingLeft=6;overflow=hidden;" vertex="1" parent="XOvYFyjmSCbvPJwa7-iT-51">
          <mxGeometry x="80" width="150" height="30" as="geometry" />
        </mxCell>
        <mxCell id="XOvYFyjmSCbvPJwa7-iT-57" value="Table" style="shape=table;startSize=30;container=1;collapsible=1;childLayout=tableLayout;fixedRows=1;rowLines=0;fontStyle=1;align=center;resizeLast=1;" vertex="1" parent="1">
          <mxGeometry x="310" y="400" width="230" height="180" as="geometry" />
        </mxCell>
        <mxCell id="XOvYFyjmSCbvPJwa7-iT-58" value="" style="shape=partialRectangle;collapsible=0;dropTarget=0;pointerEvents=0;fillColor=none;top=0;left=0;bottom=1;right=0;points=[[0,0.5],[1,0.5]];portConstraint=eastwest;" vertex="1" parent="XOvYFyjmSCbvPJwa7-iT-57">
          <mxGeometry y="30" width="230" height="30" as="geometry" />
        </mxCell>
        <mxCell id="XOvYFyjmSCbvPJwa7-iT-59" value="xMod2" style="shape=partialRectangle;connectable=0;fillColor=none;top=0;left=0;bottom=0;right=0;fontStyle=1;overflow=hidden;" vertex="1" parent="XOvYFyjmSCbvPJwa7-iT-58">
          <mxGeometry width="80" height="30" as="geometry" />
        </mxCell>
        <mxCell id="XOvYFyjmSCbvPJwa7-iT-60" value="l" style="shape=partialRectangle;connectable=0;fillColor=none;top=0;left=0;bottom=0;right=0;align=left;spacingLeft=6;fontStyle=5;overflow=hidden;" vertex="1" parent="XOvYFyjmSCbvPJwa7-iT-58">
          <mxGeometry x="80" width="150" height="30" as="geometry" />
        </mxCell>
        <mxCell id="XOvYFyjmSCbvPJwa7-iT-61" value="" style="shape=partialRectangle;collapsible=0;dropTarget=0;pointerEvents=0;fillColor=none;top=0;left=0;bottom=0;right=0;points=[[0,0.5],[1,0.5]];portConstraint=eastwest;" vertex="1" parent="XOvYFyjmSCbvPJwa7-iT-57">
          <mxGeometry y="60" width="230" height="30" as="geometry" />
        </mxCell>
        <mxCell id="XOvYFyjmSCbvPJwa7-iT-62" value="2" style="shape=partialRectangle;connectable=0;fillColor=none;top=0;left=0;bottom=0;right=0;editable=1;overflow=hidden;" vertex="1" parent="XOvYFyjmSCbvPJwa7-iT-61">
          <mxGeometry width="80" height="30" as="geometry" />
        </mxCell>
        <mxCell id="XOvYFyjmSCbvPJwa7-iT-63" value="2" style="shape=partialRectangle;connectable=0;fillColor=none;top=0;left=0;bottom=0;right=0;align=left;spacingLeft=6;overflow=hidden;" vertex="1" parent="XOvYFyjmSCbvPJwa7-iT-61">
          <mxGeometry x="80" width="150" height="30" as="geometry" />
        </mxCell>
        <mxCell id="XOvYFyjmSCbvPJwa7-iT-64" value="" style="shape=partialRectangle;collapsible=0;dropTarget=0;pointerEvents=0;fillColor=none;top=0;left=0;bottom=0;right=0;points=[[0,0.5],[1,0.5]];portConstraint=eastwest;" vertex="1" parent="XOvYFyjmSCbvPJwa7-iT-57">
          <mxGeometry y="90" width="230" height="30" as="geometry" />
        </mxCell>
        <mxCell id="XOvYFyjmSCbvPJwa7-iT-65" value="2" style="shape=partialRectangle;connectable=0;fillColor=none;top=0;left=0;bottom=0;right=0;editable=1;overflow=hidden;" vertex="1" parent="XOvYFyjmSCbvPJwa7-iT-64">
          <mxGeometry width="80" height="30" as="geometry" />
        </mxCell>
        <mxCell id="XOvYFyjmSCbvPJwa7-iT-66" value="4" style="shape=partialRectangle;connectable=0;fillColor=none;top=0;left=0;bottom=0;right=0;align=left;spacingLeft=6;overflow=hidden;" vertex="1" parent="XOvYFyjmSCbvPJwa7-iT-64">
          <mxGeometry x="80" width="150" height="30" as="geometry" />
        </mxCell>
        <mxCell id="XOvYFyjmSCbvPJwa7-iT-67" style="shape=partialRectangle;collapsible=0;dropTarget=0;pointerEvents=0;fillColor=none;top=0;left=0;bottom=0;right=0;points=[[0,0.5],[1,0.5]];portConstraint=eastwest;" vertex="1" parent="XOvYFyjmSCbvPJwa7-iT-57">
          <mxGeometry y="120" width="230" height="30" as="geometry" />
        </mxCell>
        <mxCell id="XOvYFyjmSCbvPJwa7-iT-68" value="2" style="shape=partialRectangle;connectable=0;fillColor=none;top=0;left=0;bottom=0;right=0;editable=1;overflow=hidden;" vertex="1" parent="XOvYFyjmSCbvPJwa7-iT-67">
          <mxGeometry width="80" height="30" as="geometry" />
        </mxCell>
        <mxCell id="XOvYFyjmSCbvPJwa7-iT-69" value="6" style="shape=partialRectangle;connectable=0;fillColor=none;top=0;left=0;bottom=0;right=0;align=left;spacingLeft=6;overflow=hidden;" vertex="1" parent="XOvYFyjmSCbvPJwa7-iT-67">
          <mxGeometry x="80" width="150" height="30" as="geometry" />
        </mxCell>
        <mxCell id="XOvYFyjmSCbvPJwa7-iT-70" style="shape=partialRectangle;collapsible=0;dropTarget=0;pointerEvents=0;fillColor=none;top=0;left=0;bottom=0;right=0;points=[[0,0.5],[1,0.5]];portConstraint=eastwest;" vertex="1" parent="XOvYFyjmSCbvPJwa7-iT-57">
          <mxGeometry y="150" width="230" height="30" as="geometry" />
        </mxCell>
        <mxCell id="XOvYFyjmSCbvPJwa7-iT-71" value="2" style="shape=partialRectangle;connectable=0;fillColor=none;top=0;left=0;bottom=0;right=0;editable=1;overflow=hidden;" vertex="1" parent="XOvYFyjmSCbvPJwa7-iT-70">
          <mxGeometry width="80" height="30" as="geometry" />
        </mxCell>
        <mxCell id="XOvYFyjmSCbvPJwa7-iT-72" value="8" style="shape=partialRectangle;connectable=0;fillColor=none;top=0;left=0;bottom=0;right=0;align=left;spacingLeft=6;overflow=hidden;" vertex="1" parent="XOvYFyjmSCbvPJwa7-iT-70">
          <mxGeometry x="80" width="150" height="30" as="geometry" />
        </mxCell>
        <mxCell id="XOvYFyjmSCbvPJwa7-iT-73" value="Table" style="shape=table;startSize=30;container=1;collapsible=1;childLayout=tableLayout;fixedRows=1;rowLines=0;fontStyle=1;align=center;resizeLast=1;" vertex="1" parent="1">
          <mxGeometry x="620" y="200" width="230" height="90" as="geometry" />
        </mxCell>
        <mxCell id="XOvYFyjmSCbvPJwa7-iT-74" value="" style="shape=partialRectangle;collapsible=0;dropTarget=0;pointerEvents=0;fillColor=none;top=0;left=0;bottom=1;right=0;points=[[0,0.5],[1,0.5]];portConstraint=eastwest;" vertex="1" parent="XOvYFyjmSCbvPJwa7-iT-73">
          <mxGeometry y="30" width="230" height="30" as="geometry" />
        </mxCell>
        <mxCell id="XOvYFyjmSCbvPJwa7-iT-75" value="xMod2" style="shape=partialRectangle;connectable=0;fillColor=none;top=0;left=0;bottom=0;right=0;fontStyle=1;overflow=hidden;" vertex="1" parent="XOvYFyjmSCbvPJwa7-iT-74">
          <mxGeometry width="80" height="30" as="geometry" />
        </mxCell>
        <mxCell id="XOvYFyjmSCbvPJwa7-iT-76" value="l" style="shape=partialRectangle;connectable=0;fillColor=none;top=0;left=0;bottom=0;right=0;align=left;spacingLeft=6;fontStyle=5;overflow=hidden;" vertex="1" parent="XOvYFyjmSCbvPJwa7-iT-74">
          <mxGeometry x="80" width="150" height="30" as="geometry" />
        </mxCell>
        <mxCell id="XOvYFyjmSCbvPJwa7-iT-77" value="" style="shape=partialRectangle;collapsible=0;dropTarget=0;pointerEvents=0;fillColor=none;top=0;left=0;bottom=0;right=0;points=[[0,0.5],[1,0.5]];portConstraint=eastwest;" vertex="1" parent="XOvYFyjmSCbvPJwa7-iT-73">
          <mxGeometry y="60" width="230" height="30" as="geometry" />
        </mxCell>
        <mxCell id="XOvYFyjmSCbvPJwa7-iT-78" value="1" style="shape=partialRectangle;connectable=0;fillColor=none;top=0;left=0;bottom=0;right=0;editable=1;overflow=hidden;" vertex="1" parent="XOvYFyjmSCbvPJwa7-iT-77">
          <mxGeometry width="80" height="30" as="geometry" />
        </mxCell>
        <mxCell id="XOvYFyjmSCbvPJwa7-iT-79" value="12" style="shape=partialRectangle;connectable=0;fillColor=none;top=0;left=0;bottom=0;right=0;align=left;spacingLeft=6;overflow=hidden;" vertex="1" parent="XOvYFyjmSCbvPJwa7-iT-77">
          <mxGeometry x="80" width="150" height="30" as="geometry" />
        </mxCell>
        <mxCell id="XOvYFyjmSCbvPJwa7-iT-89" value="Table" style="shape=table;startSize=30;container=1;collapsible=1;childLayout=tableLayout;fixedRows=1;rowLines=0;fontStyle=1;align=center;resizeLast=1;" vertex="1" parent="1">
          <mxGeometry x="620" y="440" width="230" height="90" as="geometry" />
        </mxCell>
        <mxCell id="XOvYFyjmSCbvPJwa7-iT-90" value="" style="shape=partialRectangle;collapsible=0;dropTarget=0;pointerEvents=0;fillColor=none;top=0;left=0;bottom=1;right=0;points=[[0,0.5],[1,0.5]];portConstraint=eastwest;" vertex="1" parent="XOvYFyjmSCbvPJwa7-iT-89">
          <mxGeometry y="30" width="230" height="30" as="geometry" />
        </mxCell>
        <mxCell id="XOvYFyjmSCbvPJwa7-iT-91" value="xMod2" style="shape=partialRectangle;connectable=0;fillColor=none;top=0;left=0;bottom=0;right=0;fontStyle=1;overflow=hidden;" vertex="1" parent="XOvYFyjmSCbvPJwa7-iT-90">
          <mxGeometry width="80" height="30" as="geometry" />
        </mxCell>
        <mxCell id="XOvYFyjmSCbvPJwa7-iT-92" value="l" style="shape=partialRectangle;connectable=0;fillColor=none;top=0;left=0;bottom=0;right=0;align=left;spacingLeft=6;fontStyle=5;overflow=hidden;" vertex="1" parent="XOvYFyjmSCbvPJwa7-iT-90">
          <mxGeometry x="80" width="150" height="30" as="geometry" />
        </mxCell>
        <mxCell id="XOvYFyjmSCbvPJwa7-iT-93" value="" style="shape=partialRectangle;collapsible=0;dropTarget=0;pointerEvents=0;fillColor=none;top=0;left=0;bottom=0;right=0;points=[[0,0.5],[1,0.5]];portConstraint=eastwest;" vertex="1" parent="XOvYFyjmSCbvPJwa7-iT-89">
          <mxGeometry y="60" width="230" height="30" as="geometry" />
        </mxCell>
        <mxCell id="XOvYFyjmSCbvPJwa7-iT-94" value="2" style="shape=partialRectangle;connectable=0;fillColor=none;top=0;left=0;bottom=0;right=0;editable=1;overflow=hidden;" vertex="1" parent="XOvYFyjmSCbvPJwa7-iT-93">
          <mxGeometry width="80" height="30" as="geometry" />
        </mxCell>
        <mxCell id="XOvYFyjmSCbvPJwa7-iT-95" value="14" style="shape=partialRectangle;connectable=0;fillColor=none;top=0;left=0;bottom=0;right=0;align=left;spacingLeft=6;overflow=hidden;" vertex="1" parent="XOvYFyjmSCbvPJwa7-iT-93">
          <mxGeometry x="80" width="150" height="30" as="geometry" />
        </mxCell>
        <mxCell id="XOvYFyjmSCbvPJwa7-iT-96" value="" style="shape=flexArrow;endArrow=classic;html=1;exitX=1;exitY=0.5;exitDx=0;exitDy=0;" edge="1" parent="1" source="XOvYFyjmSCbvPJwa7-iT-16">
          <mxGeometry width="50" height="50" relative="1" as="geometry">
            <mxPoint x="260" y="340" as="sourcePoint" />
            <mxPoint x="310" y="290" as="targetPoint" />
          </mxGeometry>
        </mxCell>
        <mxCell id="XOvYFyjmSCbvPJwa7-iT-97" value="" style="shape=flexArrow;endArrow=classic;html=1;exitX=1;exitY=0.5;exitDx=0;exitDy=0;entryX=-0.007;entryY=0.85;entryDx=0;entryDy=0;entryPerimeter=0;" edge="1" parent="1" target="XOvYFyjmSCbvPJwa7-iT-58">
          <mxGeometry width="50" height="50" relative="1" as="geometry">
            <mxPoint x="250" y="395" as="sourcePoint" />
            <mxPoint x="310" y="330" as="targetPoint" />
          </mxGeometry>
        </mxCell>
        <mxCell id="XOvYFyjmSCbvPJwa7-iT-98" value="" style="shape=flexArrow;endArrow=classic;html=1;" edge="1" parent="1" target="XOvYFyjmSCbvPJwa7-iT-74">
          <mxGeometry width="50" height="50" relative="1" as="geometry">
            <mxPoint x="540" y="248" as="sourcePoint" />
            <mxPoint x="660" y="230" as="targetPoint" />
          </mxGeometry>
        </mxCell>
        <mxCell id="XOvYFyjmSCbvPJwa7-iT-99" value="" style="shape=flexArrow;endArrow=classic;html=1;entryX=0;entryY=0.5;entryDx=0;entryDy=0;exitX=1.007;exitY=0.711;exitDx=0;exitDy=0;exitPerimeter=0;" edge="1" parent="1" source="XOvYFyjmSCbvPJwa7-iT-61" target="XOvYFyjmSCbvPJwa7-iT-90">
          <mxGeometry width="50" height="50" relative="1" as="geometry">
            <mxPoint x="570" y="781.23" as="sourcePoint" />
            <mxPoint x="650" y="779.9992307692307" as="targetPoint" />
          </mxGeometry>
        </mxCell>
        <mxCell id="XOvYFyjmSCbvPJwa7-iT-100" value="Table" style="shape=table;startSize=30;container=1;collapsible=1;childLayout=tableLayout;fixedRows=1;rowLines=0;fontStyle=1;align=center;resizeLast=1;" vertex="1" parent="1">
          <mxGeometry x="980" y="300" width="230" height="120" as="geometry" />
        </mxCell>
        <mxCell id="XOvYFyjmSCbvPJwa7-iT-101" value="" style="shape=partialRectangle;collapsible=0;dropTarget=0;pointerEvents=0;fillColor=none;top=0;left=0;bottom=1;right=0;points=[[0,0.5],[1,0.5]];portConstraint=eastwest;" vertex="1" parent="XOvYFyjmSCbvPJwa7-iT-100">
          <mxGeometry y="30" width="230" height="30" as="geometry" />
        </mxCell>
        <mxCell id="XOvYFyjmSCbvPJwa7-iT-102" value="xMod2" style="shape=partialRectangle;connectable=0;fillColor=none;top=0;left=0;bottom=0;right=0;fontStyle=1;overflow=hidden;" vertex="1" parent="XOvYFyjmSCbvPJwa7-iT-101">
          <mxGeometry width="80" height="30" as="geometry" />
        </mxCell>
        <mxCell id="XOvYFyjmSCbvPJwa7-iT-103" value="l" style="shape=partialRectangle;connectable=0;fillColor=none;top=0;left=0;bottom=0;right=0;align=left;spacingLeft=6;fontStyle=5;overflow=hidden;" vertex="1" parent="XOvYFyjmSCbvPJwa7-iT-101">
          <mxGeometry x="80" width="150" height="30" as="geometry" />
        </mxCell>
        <mxCell id="XOvYFyjmSCbvPJwa7-iT-104" value="" style="shape=partialRectangle;collapsible=0;dropTarget=0;pointerEvents=0;fillColor=none;top=0;left=0;bottom=0;right=0;points=[[0,0.5],[1,0.5]];portConstraint=eastwest;" vertex="1" parent="XOvYFyjmSCbvPJwa7-iT-100">
          <mxGeometry y="60" width="230" height="30" as="geometry" />
        </mxCell>
        <mxCell id="XOvYFyjmSCbvPJwa7-iT-105" value="1" style="shape=partialRectangle;connectable=0;fillColor=none;top=0;left=0;bottom=0;right=0;editable=1;overflow=hidden;" vertex="1" parent="XOvYFyjmSCbvPJwa7-iT-104">
          <mxGeometry width="80" height="30" as="geometry" />
        </mxCell>
        <mxCell id="XOvYFyjmSCbvPJwa7-iT-106" value="12" style="shape=partialRectangle;connectable=0;fillColor=none;top=0;left=0;bottom=0;right=0;align=left;spacingLeft=6;overflow=hidden;" vertex="1" parent="XOvYFyjmSCbvPJwa7-iT-104">
          <mxGeometry x="80" width="150" height="30" as="geometry" />
        </mxCell>
        <mxCell id="XOvYFyjmSCbvPJwa7-iT-109" style="shape=partialRectangle;collapsible=0;dropTarget=0;pointerEvents=0;fillColor=none;top=0;left=0;bottom=0;right=0;points=[[0,0.5],[1,0.5]];portConstraint=eastwest;" vertex="1" parent="XOvYFyjmSCbvPJwa7-iT-100">
          <mxGeometry y="90" width="230" height="30" as="geometry" />
        </mxCell>
        <mxCell id="XOvYFyjmSCbvPJwa7-iT-110" value="2" style="shape=partialRectangle;connectable=0;fillColor=none;top=0;left=0;bottom=0;right=0;editable=1;overflow=hidden;" vertex="1" parent="XOvYFyjmSCbvPJwa7-iT-109">
          <mxGeometry width="80" height="30" as="geometry" />
        </mxCell>
        <mxCell id="XOvYFyjmSCbvPJwa7-iT-111" value="14" style="shape=partialRectangle;connectable=0;fillColor=none;top=0;left=0;bottom=0;right=0;align=left;spacingLeft=6;overflow=hidden;" vertex="1" parent="XOvYFyjmSCbvPJwa7-iT-109">
          <mxGeometry x="80" width="150" height="30" as="geometry" />
        </mxCell>
        <mxCell id="XOvYFyjmSCbvPJwa7-iT-107" value="" style="shape=flexArrow;endArrow=classic;html=1;entryX=0;entryY=0.5;entryDx=0;entryDy=0;" edge="1" parent="1" target="XOvYFyjmSCbvPJwa7-iT-101">
          <mxGeometry width="50" height="50" relative="1" as="geometry">
            <mxPoint x="850" y="250" as="sourcePoint" />
            <mxPoint x="740" y="560" as="targetPoint" />
          </mxGeometry>
        </mxCell>
        <mxCell id="XOvYFyjmSCbvPJwa7-iT-108" value="" style="shape=flexArrow;endArrow=classic;html=1;entryX=-0.014;entryY=0.767;entryDx=0;entryDy=0;entryPerimeter=0;" edge="1" parent="1" target="XOvYFyjmSCbvPJwa7-iT-101">
          <mxGeometry width="50" height="50" relative="1" as="geometry">
            <mxPoint x="830" y="440" as="sourcePoint" />
            <mxPoint x="740" y="560" as="targetPoint" />
          </mxGeometry>
        </mxCell>
      </root>
    </mxGraphModel>
  </diagram>
</mxfile>
